<?xml version="1.0" encoding="UTF-8"?>
<!DOCTYPE svg PUBLIC "-//W3C//DTD SVG 1.1//EN" "http://www.w3.org/Graphics/SVG/1.1/DTD/svg11.dtd">
<!-- Creator: CorelDRAW X7 -->
<svg xmlns="http://www.w3.org/2000/svg" xml:space="preserve" width="8.8668in" height="4.85344in" version="1.1" style="shape-rendering:geometricPrecision; text-rendering:geometricPrecision; image-rendering:optimizeQuality; fill-rule:evenodd; clip-rule:evenodd"
viewBox="0 0 3288 1800"
 xmlns:xlink="http://www.w3.org/1999/xlink">
 <defs>
  <style type="text/css">
   <![CDATA[
    .fil0 {fill:#f1f1f1}
    .fil1 {fill:#f1f1f1;fill-rule:nonzero}
   ]]>
  </style>
 </defs>
 <g id="Layer_x0020_1">
  <metadata id="CorelCorpID_0Corel-Layer"/>
  <path class="fil0" d="M762 145c0,0 1,-53 -34,-54 -36,-1 -63,46 -84,72 -45,56 -247,294 -445,318 -30,11 57,152 284,-47 72,-63 149,-152 192,-214 0,0 20,-22 18,3 -10,155 -39,336 -54,487 -8,73 47,93 68,68 11,-123 53,-521 55,-633z"/>
  <path class="fil0" d="M730 482c0,0 25,-20 58,-55l0 0c16,-12 50,-24 64,-3 -1,0 -1,0 -1,1 -25,33 -52,66 -85,99 0,0 46,20 80,82 43,77 66,180 108,270 136,292 299,221 341,130l0 0c95,65 -8,191 -156,169 -125,-19 -211,-178 -255,-289 -19,-48 -34,-96 -46,-142 -26,-99 -61,-180 -124,-162l16 -100z"/>
  <path class="fil0" d="M1062 468c0,0 -37,-52 -74,-31 -36,21 -91,99 -86,202 2,63 43,152 112,97 28,-23 55,-67 67,-93 4,38 22,127 70,103 27,-14 47,-55 68,-80l-7 -27c0,0 -31,38 -49,55 -24,23 -35,-71 -25,-136 2,-18 6,-35 10,-53 6,-19 -21,-39 -37,-46 -23,-11 -28,59 -33,90 0,0 -19,124 -83,162 -32,18 -66,-157 67,-243z"/>
  <path class="fil0" d="M1182 748c9,-68 35,-189 40,-315 2,-10 47,-11 45,20 -2,24 -9,59 -9,59 0,0 34,-49 78,-56 0,0 23,-5 24,24 1,29 -2,35 -2,35 14,-18 34,-39 54,-51 22,-13 57,-17 54,20 -4,71 -22,152 -24,233 -3,108 15,226 102,301 50,43 113,53 173,-5 90,-88 15,-126 15,-126l2 -27c0,0 31,-3 56,26 45,53 16,117 -34,155 -31,24 -73,40 -126,40 -317,1 -247,-347 -226,-552 3,-37 -45,19 -49,26 0,0 -8,91 -21,150 -11,51 -56,29 -43,-39 7,-38 14,-86 18,-133 5,-50 -46,15 -55,33 -12,67 -26,143 -28,227 -1,30 -50,5 -44,-45z"/>
  <path class="fil0" d="M1421 587c0,0 76,-100 90,-112 14,-11 38,-22 48,11 11,33 -6,208 -6,208 0,0 68,-65 94,-174l0 -36c0,0 -6,-12 34,-14 39,-2 37,14 36,17 0,4 -10,200 -12,224 0,0 50,-46 70,-97 27,15 -25,137 -92,142 -64,6 -37,-114 -36,-150 0,0 -53,130 -91,159 -28,21 -64,-15 -67,-52 -4,-42 10,-112 9,-162 0,-6 -1,-11 -7,-5 -11,11 -72,93 -69,93 3,0 -1,-52 -1,-52z"/>
  <path class="fil0" d="M1858 222c-5,20 -18,343 -33,513 -7,75 51,66 51,62 1,-8 39,-391 43,-497 2,-55 -51,-128 -61,-78z"/>
  <path class="fil0" d="M1902 416c78,52 215,28 282,-39 143,-141 70,-427 -206,-369 -200,42 -479,296 -728,39 -34,28 -12,85 9,108 214,234 542,-22 722,-75 91,-27 184,-8 184,-8 133,142 -94,413 -262,227l-1 117z"/>
  <path class="fil0" d="M2311 107c0,0 -72,457 -113,671 -6,31 6,55 31,56 1,-4 15,-74 33,-168 115,99 202,872 755,754 158,-34 142,-141 142,-141 -453,116 -615,-97 -711,-318 -62,-143 -96,-285 -162,-331 133,-26 148,-102 143,-148 -4,-45 -9,-43 -53,-28 -36,12 -64,32 -82,47 27,-138 54,-280 65,-341 -2,-20 -32,-96 -48,-53zm-39 498l0 0c0,-58 81,-101 118,-118 0,0 -2,110 -118,118z"/>
  <path class="fil0" d="M2541 528c-126,-84 -203,352 -64,265 45,-28 72,-68 79,-79l13 -89 0 0c-12,37 -62,113 -118,138 -7,-52 33,-208 98,-215 15,-2 5,-12 -8,-20z"/>
  <path class="fil0" d="M2689 449c0,0 -85,201 -35,336 49,135 191,67 210,51 19,-17 103,-124 -33,-181 0,0 166,-129 457,31 0,0 13,-86 -113,-120 -109,-29 -288,-12 -371,72 -4,5 -7,9 -7,13 -1,7 3,14 19,17 31,6 75,77 25,133 -49,55 -121,9 -135,-30 -13,-39 -15,-142 42,-261 0,0 -27,-50 -59,-61z"/>
  <path class="fil0" d="M2648 383c0,0 49,3 77,49 0,0 56,-50 100,-58 0,0 -84,-83 -90,-113 0,0 -38,72 -87,122z"/>
  <path class="fil0" d="M689 1285c0,63 -2,276 8,368 0,0 2,29 -24,14 -27,-14 -42,-79 -48,-109 -5,-30 -11,-273 -7,-325 5,-64 72,8 71,52z"/>
  <path class="fil0" d="M890 1250c143,-245 -15,-338 -198,-228 -82,50 -127,112 -193,175 -105,101 -259,193 -353,93 -47,-50 -54,-141 42,-184 -197,-61 -254,220 -100,300 104,54 278,23 400,-95 67,-64 121,-140 206,-203 227,-170 239,44 111,189 0,0 -69,67 -93,101 0,0 -5,75 15,68 21,-7 122,-166 239,-166 0,0 5,143 -100,259 -104,115 -165,212 -383,136 0,0 -25,137 194,98 229,-41 568,-594 213,-543z"/>
  <path class="fil0" d="M1757 893l-22 -6c-54,11 -78,122 -82,244 -6,136 16,289 41,340 109,27 144,-135 114,-174 -3,-3 -2,-5 0,-5 79,-12 104,174 -33,214 -209,60 -175,-363 -153,-471 37,-182 115,-175 115,-175l20 33z"/>
  <path class="fil0" d="M1924 1525c0,0 -12,-5 -8,-30 4,-25 124,-501 144,-615 19,-10 72,49 70,58 -3,16 -58,410 10,643 0,0 4,13 -18,6 -21,-7 -54,-45 -60,-135 -5,-90 -10,-353 -10,-353 0,0 -71,304 -111,406 0,0 -7,24 -17,20z"/>
  <path class="fil0" d="M2068 1217c-120,16 -620,51 -649,-104 0,0 329,89 659,24l-10 80z"/>
  <path class="fil0" d="M2169 1249c0,0 13,292 -27,465 -12,50 25,96 36,84 26,-28 71,-300 43,-495 -6,-40 -52,-75 -52,-54z"/>
  <path class="fil0" d="M2224 1322c18,-25 60,-63 77,-69 49,-20 36,99 33,124 -4,34 -12,65 -22,111 -7,30 11,9 14,5 4,-4 45,-56 59,-92 14,-36 16,6 16,6l-16 39c0,0 -52,86 -83,93 -38,9 -26,-82 -23,-101 5,-36 13,-74 13,-116 0,-22 -19,-12 -36,6 -18,17 -36,50 -36,50l4 -56z"/>
  <path class="fil0" d="M2532 1287c0,0 -9,-55 -60,-52 -52,2 -127,174 -100,276 27,101 139,-32 153,-63 -1,6 35,98 120,27 6,-6 3,-11 -3,-7 -71,47 -97,-57 -67,-110 12,-23 -37,-51 -44,-23 -5,20 -10,61 -10,61 0,0 -70,89 -99,100 0,0 -1,-204 110,-209z"/>
  <path class="fil0" d="M2082 504c-1,-5 -37,-51 -72,-30 -36,21 -90,97 -85,199 4,101 63,119 96,103 34,-15 73,-77 87,-107 -2,36 23,106 45,106 22,0 83,-76 83,-76l-7 -26c0,0 -38,45 -54,59 0,0 -28,-76 8,-198 0,0 -6,-23 -32,-35 -29,-13 -34,55 -39,85 0,0 -36,133 -105,163 0,0 -76,-145 75,-243z"/>
  <path class="fil0" d="M2583 812c39,1 71,-73 71,-73l-6 -25c0,0 -29,48 -44,59 0,0 -22,-69 16,-179 0,0 -6,-20 -29,-32 -44,-22 -47,248 -8,250z"/>
  <path class="fil0" d="M993 1369c0,0 79,-105 94,-117 14,-11 39,-23 50,11 11,35 -6,218 -6,218 0,0 71,-68 98,-182l0 -38c0,0 -6,-13 35,-14 42,-2 39,14 39,18 -1,4 -11,209 -14,233 0,0 53,-47 74,-101 0,0 12,7 7,29 -5,23 -43,115 -103,120 -59,5 -39,-119 -37,-157 0,0 -56,136 -96,166 -29,22 -67,-16 -70,-54 -4,-44 11,-118 10,-170 0,-6 -2,-11 -8,-5 -11,12 -75,97 -72,98 3,0 -1,-55 -1,-55z"/>
  <path class="fil0" d="M1498 1267c-1,-6 -37,-52 -73,-31 -35,21 -89,97 -85,199 5,101 63,119 97,104 34,-16 73,-78 87,-108 -2,36 32,104 54,104 22,0 70,-83 68,-90l-8 -27c0,0 -31,63 -47,76 0,0 -28,-76 8,-198 0,0 -7,-23 -32,-34 -29,-14 -34,54 -39,84 0,0 -36,133 -105,163 0,0 -76,-145 75,-242z"/>
  <g id="_860953091472">
   <path class="fil0" d="M831 175l171 0c13,0 25,11 25,24l0 168c0,14 -12,25 -25,25l-171 0c-13,0 -24,-11 -24,-25l0 -81 108 0c-1,2 -2,4 -4,6 -8,12 -15,21 -19,26l-6 10c-3,3 -5,6 -6,9 -4,6 -6,9 -6,9l0 24 83 0 0 -25 -51 0c0,0 0,-1 1,-3 1,-2 4,-6 7,-11l5 -7c5,-8 10,-15 12,-19 6,-8 10,-14 14,-19l82 0 0 -5 -79 0c1,-3 3,-5 4,-7 5,-11 8,-23 8,-35 0,-11 -4,-21 -13,-30 -8,-9 -18,-13 -29,-13 -13,0 -23,4 -30,12 -9,8 -14,21 -14,37l0 5 26 0 0 -7c0,-4 1,-7 2,-10 3,-8 8,-12 15,-12 5,0 10,2 13,6 3,3 4,8 4,13 0,7 -1,14 -5,21 -2,6 -6,13 -10,20l-112 0 0 -82c0,-13 11,-24 24,-24z"/>
   <path class="fil0" d="M1071 175l171 0c13,0 24,11 24,24l0 82 -83 0 0 -81 -25 0 -34 81 -77 0 0 5 75 0 -8 20 0 25 44 0 0 36 25 0 0 -36 17 0 0 -25 -17 0 0 -20 83 0 0 81c0,14 -11,25 -24,25l-171 0c-13,0 -24,-11 -24,-25l0 -168c0,-13 11,-24 24,-24zm87 106l-11 0 11 -28 0 28zm-13 5l13 0 0 20 -20 0 7 -20z"/>
  </g>
  <path class="fil1" d="M1345 366c0,7 -2,13 -7,18 -6,5 -12,8 -19,8 -4,0 -8,-1 -10,-2l2 -15c2,0 4,0 5,0 1,1 2,1 4,0 2,0 4,-1 6,-2 2,-2 3,-4 3,-7l0 -53 16 0 0 53zm-16 -70l0 -15 16 0 0 15 -16 0zm41 69l-4 26 -18 0 19 -111 23 0 18 111 -17 0 -4 -26 -17 0zm8 -59l-6 43 13 0 -7 -43zm52 85l-16 0 0 -111 24 0 15 80 15 -80 23 0 0 111 -17 0 0 -70 -14 70 -14 0 -16 -69 0 69z"/>
 </g>
</svg>
