<?xml version="1.0" encoding="UTF-8"?>
<!DOCTYPE svg PUBLIC "-//W3C//DTD SVG 1.1//EN" "http://www.w3.org/Graphics/SVG/1.1/DTD/svg11.dtd">
<!-- Creator: CorelDRAW X7 -->
<svg xmlns="http://www.w3.org/2000/svg" xml:space="preserve" width="0.957185in" height="1.09634in" version="1.1" style="shape-rendering:geometricPrecision; text-rendering:geometricPrecision; image-rendering:optimizeQuality; fill-rule:evenodd; clip-rule:evenodd"
viewBox="0 0 782 896"
 xmlns:xlink="http://www.w3.org/1999/xlink">
 <defs>
  <style type="text/css">
   <![CDATA[
    .fil1 {fill:#32AEDA}
    .fil2 {fill:#34BEEF}
    .fil3 {fill:#4D4D4D}
    .fil0 {fill:#4D4D4D}
    .fil5 {fill:#E9E9E9}
    .fil6 {fill:white}
    .fil4 {fill:#4D4D4D;fill-rule:nonzero}
   ]]>
  </style>
 </defs>
 <g id="Layer_x0020_1">
  <metadata id="CorelCorpID_0Corel-Layer"/>
  <g id="_674720385424">
   <g>
    <path class="fil0" d="M526 252c-3,7 -7,14 -13,20 -18,19 -43,27 -69,26 -22,-1 -42,-8 -53,-28 -11,0 -21,-8 -23,-19 -5,0 -10,0 -14,0 -23,5 -48,6 -68,-6 -6,-3 -12,-8 -17,-14 -4,1 -8,1 -12,0 -4,11 -14,21 -26,24 -13,5 -30,4 -43,-3 -12,8 -33,6 -47,2 -20,6 -68,19 -76,-9 -4,-11 3,-23 11,-30 8,-7 17,-11 27,-11 1,-10 8,-17 18,-19 -4,-8 -6,-17 -5,-26 1,-14 9,-26 21,-33 19,-11 39,-7 54,7 7,-2 16,-2 24,0 3,-17 19,-24 35,-26 -7,-15 -9,-32 -4,-49 4,-15 14,-28 26,-39 9,-7 19,-13 30,-16 35,-10 64,6 83,33 10,-7 23,-10 34,-9 20,1 34,13 43,30 1,-1 2,-1 3,-1 6,-2 13,-1 18,3l2 -1c15,-11 41,-11 58,-5 27,9 43,30 49,57 9,1 16,10 19,19 107,-39 155,115 43,116 -14,0 -28,0 -42,0 -7,7 -18,12 -26,16 -21,8 -42,5 -60,-9z"/>
    <path class="fil1" d="M353 244c7,0 14,0 21,0 0,0 0,1 0,2 0,9 8,17 18,17 1,0 2,0 3,0 7,15 21,27 49,28 33,1 52,-12 64,-24 13,-14 22,-37 4,-57 0,0 21,8 17,36 39,32 80,-7 80,-8 16,0 31,0 45,0 102,-1 56,-140 -43,-102 -2,13 -6,13 -8,14 7,-15 -3,-36 -16,-33 -12,-68 -77,-69 -98,-53 8,6 10,17 9,28 8,0 16,2 23,6 5,2 9,6 12,11 -13,-7 -28,-12 -43,-11 10,-27 -20,-47 -31,-30 -17,-48 -65,-37 -74,-20 -58,-95 -171,-4 -123,66l0 0c0,0 -40,-2 -41,23 0,0 8,-1 13,1 0,0 -12,1 -15,3 0,0 -16,-6 -30,0 -36,-41 -97,12 -50,58 0,0 -6,-4 -11,-7 0,0 -22,-2 -18,19 -42,-9 -74,70 31,36 0,0 49,14 50,-14 0,0 3,6 0,12 0,0 16,11 38,4 23,-7 23,-31 23,-31 0,0 5,12 20,5 0,0 19,35 81,21z"/>
    <path class="fil2" d="M143 131c-21,10 -32,40 -4,68 0,0 -6,-4 -11,-7 0,0 -22,-2 -18,19 -34,-7 -62,46 -11,45 -23,-20 15,-33 15,-33 3,-19 15,-19 15,-19 14,9 36,10 36,10 -44,-46 -23,-83 -22,-83zm412 -66c-24,-14 -54,-11 -66,-1 8,6 10,17 9,28 8,0 16,2 23,6 5,2 9,6 12,11 -13,-7 -28,-12 -43,-11 10,-27 -20,-47 -31,-30 -17,-48 -65,-37 -74,-20 -7,-11 -14,-20 -22,-26 23,20 28,74 28,74 0,0 -2,-35 27,-44 28,-9 40,28 40,28 8,-15 23,-10 26,3 3,13 -27,27 -27,27 52,-14 80,11 80,11 -2,-22 -18,-32 -18,-32 6,-24 35,-24 36,-24zm127 76c0,-1 -1,-1 -2,-2l0 0c-1,-1 -2,-1 -3,-2l0 0c-1,0 -2,-1 -3,-1l0 0c-1,-1 -2,-1 -3,-2l-1 0c-1,0 -1,0 -2,-1l-1 0c-1,0 -2,-1 -3,-1l0 0c-1,0 -2,0 -3,-1l-1 0c-1,0 -2,0 -3,0l0 0c-2,-1 -3,-1 -4,-1l0 0c-1,0 -2,0 -3,0l-1 0c-1,0 -2,0 -3,0l-1 0 0 0c-1,0 -2,0 -3,0l-1 0c-1,0 -2,0 -4,0l0 0c-1,0 -3,0 -4,0l0 0c-1,1 -3,1 -4,1l0 0c-2,0 -3,1 -5,1l0 0 0 0c-1,0 -3,1 -4,1l0 0c-2,1 -3,1 -4,2l-1 0c-1,0 -3,1 -4,1l0 0 0 0 0 0 0 1 0 0 0 0 0 0 0 0 0 0 0 0 0 0 0 0 0 0 0 0 0 0 0 0 0 0 0 0 0 0 0 0 0 0 0 0 0 0 0 0 0 0 0 0 0 0 0 0 0 1 0 0 0 0 0 0 0 0 0 0 0 0 0 0 0 0 0 0 0 0 -1 0 0 0 0 0 0 0 0 0 0 0 0 0 0 0 0 0 0 0 0 0 0 0 0 0 0 0 0 0 0 1 0 0 0 0 0 0 0 0 0 0 0 0 0 0 0 0 0 0 0 0 0 0 0 0 0 0c-2,10 -5,10 -7,11 2,-5 3,-10 2,-15l0 0 0 0 0 -1 0 0 0 0 0 0 0 0 0 -1 0 0 0 0 0 0 0 0 0 0 0 -1 0 0 0 0 0 0 -1 0 0 0 0 0 0 -1 0 0 0 0 0 0 0 0 0 0 0 0 0 -1 0 0 0 0 0 0 0 0 0 0 0 -1 0 0 0 0 -1 0 0 0 0 0 0 -1 0 0 0 0 0 0 0 -1 0 0 0 0 0 0 0 0 -1 0 0 0 0 -1 0 0 0 0 0 0 0 0 0 -1 0 0 0 0 -1 0 0 0 0 0 0 -1 0 0 0 0 0 0 0 0 -1 -1c3,5 3,10 3,16 0,0 -8,18 -37,12 0,0 19,13 35,2 -5,17 -14,31 -14,31 8,-2 14,-6 18,-12 17,-36 77,-31 78,-31l-1 0zm-348 -133c-54,-10 -108,53 -72,106l0 0c0,0 -40,-2 -41,23 0,0 8,-1 13,1 0,0 -12,1 -15,3 0,0 -16,-6 -30,0 -7,-8 -16,-13 -24,-14 18,3 19,23 19,23 13,-9 32,-2 32,-2 12,-8 39,-9 39,-9 -11,-6 -19,-10 -19,-10 25,-11 55,2 55,2 -8,-25 -10,-44 -8,-60 0,-1 17,-14 52,-7 0,0 -19,-11 -49,-7 12,-38 47,-49 48,-49zm59 109l4 3c0,0 -19,18 -10,51 0,0 -23,-28 -60,-23 0,0 7,-8 18,-8 11,0 24,3 24,3l5 -8c0,0 5,-14 11,-16 6,-2 8,-2 8,-2zm46 174c2,0 4,0 5,0 33,1 52,-12 64,-24 13,-14 22,-37 4,-57 0,0 21,8 17,36 17,14 35,14 50,10 -10,0 -32,1 -43,-29 -11,-30 -56,-52 -56,-52 11,24 14,42 13,57 0,0 -26,10 -55,0 0,0 26,22 53,13 -11,37 -52,46 -52,46zm-265 -41c9,-2 17,-6 17,-17 0,0 3,6 0,12 0,0 1,1 3,2 4,-15 -4,-24 -4,-24 -1,19 -16,27 -16,27zm43 1c3,0 8,-1 12,-2 23,-7 23,-31 23,-31 0,0 5,12 20,5 0,0 10,19 39,23 -29,-4 -36,-31 -36,-31 0,0 -3,5 -13,5 -10,-1 -11,-24 -11,-24 -6,47 -34,55 -34,55z"/>
    <path class="fil3" d="M369 140c0,-11 6,-19 15,-23 8,-5 16,-1 18,2 0,0 -13,0 -21,8 -4,4 -7,12 -4,23 0,0 -61,-25 -68,28l0 0c-3,-3 -5,-12 -1,-20 1,-2 2,-3 3,-4 12,-17 35,-20 58,-14z"/>
   </g>
   <g>
    <path class="fil0" d="M567 521c3,-4 5,-9 7,-14 -9,-2 -17,-3 -24,-2 -22,6 -26,40 -6,38 10,-1 17,-12 23,-22zm10 -25c7,-26 8,-57 9,-73 1,-1 1,-3 1,-5 -9,18 -22,41 -35,42 -44,5 -26,-114 26,-119 9,-1 18,5 21,13l0 0c3,-3 6,-6 11,-6 5,-1 9,3 9,8l0 1 0 2c-7,11 -10,51 -11,64 -1,20 -4,49 -12,75l7 1c41,6 91,12 134,-10 1,9 -8,18 -16,22 -41,19 -87,9 -130,0 -1,3 -2,6 -4,8 -9,18 -22,31 -42,33 -39,4 -44,-45 -4,-55 10,-3 22,-2 36,-1zm18 -133c-1,0 -2,1 -2,1 -4,0 -8,-1 -9,-5 -1,-2 -3,-4 -6,-4 -23,3 -33,83 -25,89 10,-2 37,-67 41,-79 0,-1 0,-1 1,-2z"/>
    <path class="fil0" d="M454 401c9,-24 24,-52 44,-54 9,-1 15,4 16,13l0 1 0 0c-5,24 -8,55 -6,80 0,3 2,15 5,17 12,8 16,-38 16,-44 0,-1 1,-2 3,-2 1,0 3,1 2,2 0,14 -2,56 -22,58 -19,2 -24,-28 -26,-41 -2,-20 -1,-42 2,-63 -8,10 -14,24 -18,35 -5,11 -9,22 -12,34 -1,4 -4,14 -4,18 0,4 -3,7 -7,7 -10,1 -12,-12 -13,-20 -1,-16 -5,-90 18,-92 5,0 8,3 9,8l0 1 0 0c-3,14 -5,28 -7,42z"/>
    <path class="fil0" d="M415 462c1,4 -2,8 -6,8 -10,1 -12,-15 -12,-21 -2,-16 -6,-87 18,-90 6,0 10,3 10,9l0 0 0 1c-7,28 -13,65 -10,93z"/>
    <path class="fil0" d="M283 418c9,-24 23,-54 42,-55 9,-1 15,4 16,12l0 1 0 1c-3,12 -5,25 -7,38 9,-21 23,-47 38,-49 9,0 15,4 16,13l0 1 0 0c-3,18 -13,58 -4,75 5,10 14,4 15,-13 0,-3 2,-5 5,-5 3,0 1,2 1,5 -8,34 -24,38 -35,24 -15,-19 -10,-51 -8,-74 -6,8 -11,18 -14,26 -4,8 -15,36 -16,43 1,4 -3,7 -6,8 -11,1 -12,-13 -13,-21 -2,-20 -1,-41 2,-61 -7,10 -13,25 -17,35 -4,10 -15,43 -16,52 1,4 -2,7 -6,7 -11,1 -12,-12 -13,-20 -1,-15 -5,-89 18,-92 5,0 8,3 9,8l0 1 0 0c-3,13 -5,27 -7,40z"/>
    <path class="fil0" d="M242 387c-38,-24 -2,-60 13,-11 3,1 7,2 10,2 1,0 3,-1 5,-2l5 -5 0 0c2,12 -8,22 -17,21 1,28 -8,92 -41,95 -55,6 -40,-109 4,-113 5,-1 10,2 11,7l2 5c-35,3 -35,87 -17,85 9,-1 17,-19 19,-26 6,-18 8,-39 6,-58l0 0z"/>
    <path class="fil0" d="M171 330l-2 -1c-38,-7 -64,39 -75,85 -36,148 61,159 90,18l10 2c-30,152 -157,161 -136,4 9,-60 45,-124 101,-130 9,0 14,5 16,13 3,-5 7,-9 13,-9 7,-1 11,5 11,12l-1 1c-10,12 -13,36 -12,51 1,9 -17,9 -17,-1 -1,-9 -3,-30 2,-45z"/>
    <path class="fil0" d="M441 551c7,-24 20,-54 40,-57 9,-1 16,3 17,12l0 1 0 0c-1,11 -9,81 -2,102l-16 2c-11,-30 -8,-75 -8,-95 -7,10 -12,25 -16,36 -3,11 -7,23 -9,34 -1,5 -3,15 -3,19 0,3 -3,7 -6,7 -11,2 -13,-11 -15,-19 -2,-15 -11,-89 12,-93 5,0 8,3 9,8l0 0 0 1c-2,13 -3,28 -3,42z"/>
    <path class="fil0" d="M393 527c-40,-21 -6,-60 12,-12 4,1 7,2 10,1 2,0 4,0 5,-1l5 -6 1 8c2,7 -3,12 -9,13 -3,1 -6,1 -8,1 3,28 -2,92 -35,98 -54,9 -46,-107 -3,-114 5,-1 10,2 12,7l1 4c-34,6 -29,90 -10,87 8,-2 15,-21 17,-28 4,-18 5,-39 2,-58l0 0z"/>
    <path class="fil0" d="M310 540c-40,-21 -6,-59 12,-11 13,5 30,3 39,-6 2,13 -17,23 -35,22 3,28 -2,92 -35,97 -54,9 -46,-106 -3,-113 5,-1 10,1 12,6l1 5c-34,6 -29,89 -10,86 9,-1 15,-20 17,-27 5,-18 5,-40 2,-58l0 -1z"/>
    <path class="fil0" d="M231 512c3,-3 6,-6 10,-6 5,-1 9,2 10,7l1 2 -1 1c-5,6 -9,47 -3,59l-4 -2c-21,1 -20,-34 -16,-51l-1 0c-1,-1 -4,0 -5,0 -18,3 -31,26 -28,43 4,25 54,28 61,69 7,40 -27,74 -64,80 -64,11 -53,-72 -1,-81 7,-1 12,3 14,9l1 4 -4 1c-35,6 -51,61 -13,54 33,-5 49,-31 44,-63 -7,-40 -56,-36 -62,-70 -5,-28 21,-60 49,-64 6,-1 11,3 12,8z"/>
    <path class="fil4" d="M248 575c-28,1 -152,-4 -188,33 -4,4 -5,9 -1,14 -24,-3 -14,-25 0,-35 43,-29 133,-28 185,-22 1,3 1,7 4,10z"/>
    <path class="fil4" d="M494 600c7,34 19,45 31,44 41,-4 38,-116 -35,-43l4 -1zm-14 11c-39,51 -84,88 -125,97 -32,7 -70,-6 -81,-42 9,9 54,43 127,-4 52,-33 81,-84 126,-91 53,-9 52,74 -1,78 -20,2 -40,-7 -46,-38z"/>
    <path class="fil4" d="M434 316c-3,7 -5,12 -1,24 2,6 2,7 -5,4 -6,-2 -10,-3 -20,1 -7,2 -6,1 -4,-4 3,-7 3,-11 -1,-23 -2,-4 -1,-5 3,-3 13,4 16,3 25,-1 3,-1 4,-2 3,2z"/>
   </g>
   <g>
    <g>
     <path class="fil0" d="M594 851c-3,7 -7,13 -12,19 -18,19 -42,26 -67,26 -22,-1 -42,-9 -52,-27 -12,-1 -21,-9 -23,-19 -5,0 -9,0 -14,0 -22,5 -46,5 -66,-6 -6,-3 -12,-8 -16,-13 -4,0 -9,0 -12,-1 -4,11 -13,20 -25,24 -13,4 -30,4 -42,-4 -12,8 -33,7 -46,3 -20,6 -67,18 -75,-9 -3,-11 3,-23 11,-30 8,-6 17,-10 27,-10 1,-10 7,-17 17,-18 -4,-8 -6,-17 -5,-26 1,-14 9,-26 21,-32 18,-11 38,-7 52,7 8,-2 16,-2 23,0 3,-17 20,-23 35,-25 -7,-15 -9,-32 -4,-48 4,-15 14,-28 25,-38 9,-8 19,-13 30,-16 34,-10 62,6 81,32 9,-7 23,-10 33,-9 19,1 33,13 41,29 1,0 2,-1 4,-1 6,-2 12,0 18,3l1 0c15,-12 40,-12 57,-6 27,9 42,30 48,56 9,2 15,9 18,19 105,-39 152,112 42,113 -13,0 -27,0 -41,0 -7,6 -17,12 -25,15 -21,8 -41,6 -59,-8z"/>
     <path class="fil1" d="M425 843c7,0 14,0 21,0 0,0 0,1 0,2 0,9 8,17 17,17 2,0 3,0 4,0 6,14 20,26 48,27 32,1 50,-12 62,-24 12,-13 21,-35 4,-56 0,0 20,8 16,35 38,32 79,-6 79,-6 15,-1 29,-1 43,-1 100,-1 55,-137 -42,-99 -2,12 -6,12 -7,13 7,-14 -4,-35 -16,-32 -12,-66 -76,-67 -96,-52 8,6 10,17 9,27 8,1 16,3 22,6 5,3 10,7 13,11 -13,-6 -28,-11 -43,-10 10,-27 -19,-46 -30,-30 -17,-47 -64,-36 -73,-20 -56,-92 -166,-3 -120,65l0 0c0,0 -38,-2 -39,23 0,0 7,-2 12,1 0,0 -11,0 -14,3 0,0 -16,-6 -29,0 -35,-40 -95,11 -49,56 0,0 -6,-3 -11,-7 0,0 -21,-2 -17,19 -41,-9 -73,68 30,35 0,0 47,14 49,-14 0,0 3,6 -1,12 0,0 16,11 38,4 22,-7 22,-30 22,-30 0,0 5,11 19,5 0,0 19,34 79,20z"/>
     <path class="fil2" d="M220 732c-20,11 -31,40 -3,67 0,0 -6,-3 -11,-7 0,0 -21,-2 -17,19 -34,-7 -62,44 -12,43 -22,-19 15,-32 15,-32 3,-18 15,-18 15,-18 14,9 35,10 35,10 -43,-45 -22,-81 -22,-82zm402 -63c-23,-15 -52,-11 -64,-2 8,6 10,17 9,27 8,1 16,3 22,6 5,3 10,7 13,11 -13,-6 -28,-11 -43,-10 10,-27 -19,-46 -30,-30 -17,-47 -64,-36 -73,-20 -6,-10 -13,-19 -21,-25 23,20 27,72 27,72 0,0 -1,-34 27,-43 27,-9 39,28 39,28 8,-15 22,-10 25,3 3,13 -26,26 -26,26 51,-13 78,11 78,11 -1,-22 -17,-31 -17,-31 6,-23 34,-23 34,-23zm125 73c-1,-1 -1,-1 -2,-1l-1 -1c0,0 -1,-1 -2,-1l-1 0c0,-1 -1,-1 -2,-2l0 0c-1,0 -2,-1 -3,-1l-1 0c-1,0 -1,-1 -2,-1l-1 0c-1,-1 -2,-1 -3,-1l0 0c-1,-1 -2,-1 -3,-1l-1 0c-1,0 -2,-1 -3,-1l0 0c-1,0 -2,0 -3,0l-1 0c-1,0 -2,-1 -3,-1l0 0c-2,0 -3,0 -4,0l0 0 0 0c-1,0 -3,0 -4,0l0 0c-1,0 -3,0 -4,1l0 0c-1,0 -3,0 -4,0l0 0c-1,0 -3,0 -4,1l0 0c-2,0 -3,0 -4,1l-1 0 0 0c-1,0 -2,0 -4,1l0 0c-1,0 -3,1 -4,1l0 0c-2,1 -3,1 -5,2l0 0 0 0 0 0 0 0 0 0 0 0 0 0 0 0 0 0 0 0 0 0 0 0 0 0 0 0 0 0 0 1 0 0 0 0 0 0 0 0 0 0 0 0 0 0 0 0 0 0 0 0 0 0 0 0 0 0 0 0 0 0 0 0 0 0 0 0 0 0 0 0 0 0 0 0 0 0 0 0 0 0 0 0 0 1 0 0 0 0 0 0 0 0 0 0 0 0 0 0 0 0 0 0 0 0 0 0 0 0 0 0 0 0 0 0 0 0 0 0 0 0 0 0 0 0 0 0 0 0 0 0 0 0 0 0c-2,10 -6,10 -7,11 2,-5 2,-10 2,-14l0 -1 0 0 0 0 0 0 0 0 0 0 -1 -1 0 0 0 0 0 0 0 0 0 -1 0 0 0 0 0 0 0 0 0 0 0 0 0 -1 0 0 0 0 0 0 0 0 0 0 0 0 0 -1 0 0 0 0 -1 0 0 0 0 -1 0 0 0 0 0 0 0 0 0 0 0 0 0 0 0 -1 0 0 0 0 0 -1 -1 0 0 0 0 0 0 0 0 0 0 0 0 -1 0 0 0 0 0 0 0 0 0 0 -1 -1 0 0 0 0 0 0 0 0 0 0 0 -1 0 0 0 0 0 0 -1 0 0 -1 0 0c2,5 3,10 3,15 0,1 -8,18 -36,12 0,0 18,13 34,2 -5,16 -14,30 -14,30 8,-2 14,-5 18,-11 16,-35 75,-31 75,-31l0 0zm-340 -129c-53,-11 -106,52 -71,103l0 0c0,0 -38,-2 -39,23 0,0 7,-2 12,1 0,0 -11,0 -14,3 0,0 -16,-6 -29,0 -8,-9 -16,-13 -24,-14 18,3 18,22 18,22 13,-8 32,-2 32,-2 12,-8 38,-8 38,-8 -11,-6 -19,-10 -19,-10 25,-11 54,1 54,1 -8,-23 -10,-43 -8,-58 1,-1 17,-14 51,-7 0,0 -18,-10 -48,-7 12,-37 46,-47 47,-47zm58 106l3 3c0,0 -18,18 -9,50 0,0 -23,-28 -58,-23 0,0 6,-8 17,-7 10,0 23,2 23,2l5 -8c0,0 5,-13 11,-15 6,-2 8,-2 8,-2zm45 170c1,0 3,0 5,0 32,1 50,-12 62,-24 12,-13 21,-35 4,-56 0,0 20,8 16,35 17,15 35,15 49,10 -9,1 -31,2 -42,-27 -11,-30 -55,-51 -55,-51 11,23 14,41 13,55 0,1 -25,10 -54,0 0,0 26,22 52,13 -10,36 -50,45 -50,45zm-259 -40c9,-2 16,-6 17,-17 0,0 3,6 -1,12 0,0 1,1 3,2 4,-15 -3,-23 -3,-23 -2,18 -16,26 -16,26zm41 1c4,0 8,-1 13,-2 22,-7 22,-30 22,-30 0,0 5,11 19,5 0,0 10,18 38,22 -27,-4 -34,-30 -34,-30 0,0 -3,5 -13,4 -10,-1 -11,-23 -11,-23 -6,46 -33,54 -34,54z"/>
     <path class="fil3" d="M441 741c1,-10 6,-18 15,-22 8,-5 15,-1 17,2 0,0 -12,0 -20,8 -4,4 -7,11 -4,22 0,0 -60,-24 -67,28l0 0c-2,-4 -4,-12 0,-20 1,-1 2,-3 3,-4 12,-17 34,-20 56,-14z"/>
    </g>
    <g>
     <path class="fil0" d="M453 693c3,0 5,1 8,1 0,-1 1,-1 2,-2 16,-18 45,-19 65,-9 26,13 34,38 29,64 10,2 17,11 16,22 8,1 15,2 23,4 15,3 31,7 45,12 8,3 25,9 24,20 0,10 -18,13 -26,14 -46,6 -94,8 -141,10 -52,1 -105,1 -157,0 -3,10 -12,18 -23,19 -11,19 -30,26 -52,27 -25,0 -50,-7 -67,-26 -4,-5 -9,-12 -12,-19 -16,13 -36,16 -56,9 -9,-3 -20,-9 -28,-16 -13,0 -27,0 -41,0 -109,-1 -62,-151 43,-113 2,-9 9,-17 17,-18 6,-26 22,-47 48,-56 17,-6 42,-6 57,5l1 1c6,-3 12,-5 18,-3 2,0 3,1 3,1 9,-16 23,-28 42,-29 10,-1 24,2 32,9 61,-85 170,1 130,73z"/>
     <path class="fil5" d="M439 701c11,-4 19,-1 24,2 19,-37 107,-22 85,51 13,-4 23,9 17,20 52,8 132,30 73,38 -80,11 -192,12 -304,10 0,1 0,1 0,2 0,9 -7,17 -17,17 -1,0 -2,0 -3,0 -6,14 -20,26 -48,27 -32,1 -50,-11 -62,-23 -12,-14 -21,-36 -4,-56 0,0 -20,8 -16,35 -38,31 -78,-7 -78,-7 -15,0 -30,-1 -44,-1 -99,0 -54,-136 42,-98 2,11 6,12 8,12 -7,-13 3,-34 16,-31 11,-66 75,-67 95,-52 -8,6 -10,17 -9,27 -8,1 -16,3 -22,6 -5,3 -9,6 -12,11 12,-6 27,-11 42,-10 -10,-27 19,-46 30,-30 17,-47 64,-36 72,-20 58,-95 173,2 115,70z"/>
     <path class="fil6" d="M281 866c-4,1 -9,2 -15,2 -32,1 -50,-11 -62,-23 -12,-14 -21,-36 -4,-56 3,19 10,33 19,44 1,0 22,6 49,1 0,0 -20,12 -42,7 24,23 54,25 55,25z"/>
     <path class="fil6" d="M102 817c-14,0 -27,-1 -40,-1 -99,0 -54,-136 42,-98 2,11 6,12 8,12 -7,-13 3,-34 16,-31 2,-16 8,-28 16,-37l0 0c2,-3 4,-5 6,-7l0 0 1 0 0 -1c2,-1 3,-2 5,-4l0 0c1,0 2,-1 2,-1l0 0c3,-2 5,-3 8,-4l0 0 0 0 1 -1 0 0 1 0 0 0 0 0 1 -1 1 0 0 0c3,-1 5,-2 8,-2l-1 0c7,-2 14,-2 20,-2 -1,0 -43,21 -49,68 -1,5 -1,9 -1,14 0,0 -33,1 -26,28 0,0 -16,-7 -18,-21 -2,-14 -68,0 -49,57 0,0 11,-22 38,-18 0,0 -35,14 -29,31 6,17 36,19 39,19z"/>
     <path class="fil6" d="M324 631l1 -1 0 0 0 -1 1 0 0 -1 0 0 0 0 1 -1 0 0 0 0 0 -1 0 0 1 0 0 -1 0 0 0 0 1 -1 0 0 0 0 1 -1 0 0 0 0 0 0 0 -1 1 0 0 0 0 -1 0 0 1 0 0 -1 0 0 1 -1c10,-12 21,-20 32,-24l0 0c2,0 3,-1 5,-1l0 0 2 -1 0 0 0 0 1 0 1 0 1 0 0 0 1 0 1 -1 0 0 0 0 1 0 1 0 1 0 0 0 0 0 1 0 1 0 0 0 0 0 2 0 0 0 1 0 1 0 0 0c20,0 38,10 51,24 0,0 -72,-19 -103,58 -12,-48 -65,-54 -72,10 -13,-36 -38,-18 -33,12 0,0 -25,-12 -53,0 0,0 4,-17 35,-25 0,0 -1,-14 10,-26 0,1 1,1 2,2 -8,6 -10,17 -9,27 -8,1 -16,3 -22,6 -5,3 -9,6 -12,11 12,-6 27,-11 42,-10 -10,-27 19,-46 30,-30 17,-47 64,-36 72,-20z"/>
     <path class="fil6" d="M550 719c2,9 2,21 -2,35 13,-4 23,9 17,20 9,2 20,4 30,6 0,0 -22,-4 -34,-4 0,0 4,-3 4,-8 0,-12 -14,-16 -23,-1 0,0 -5,-12 -26,-16 0,0 14,-1 23,2 0,0 12,-9 11,-34z"/>
     <path class="fil6" d="M454 668c-3,22 -15,33 -15,33 11,-4 19,-1 24,2 10,-20 42,-25 65,-13 -2,0 -37,-9 -56,42 0,0 -3,-22 -18,-26 -15,-5 -26,0 -26,0 9,-6 21,-21 26,-38z"/>
    </g>
   </g>
  </g>
 </g>
</svg>
