<?xml version="1.0" encoding="iso-8859-1"?>
<!-- Generator: Adobe Illustrator 19.0.0, SVG Export Plug-In . SVG Version: 6.00 Build 0)  -->
<svg version="1.1" id="Layer_1" xmlns="http://www.w3.org/2000/svg" xmlns:xlink="http://www.w3.org/1999/xlink" x="0px" y="0px"
	 viewBox="0 0 491.52 491.52" style="enable-background:new 0 0 491.52 491.52;" xml:space="preserve">
<path style="fill:#27A2DB;" d="M480.809,3.515H171.219c-5.916,0-10.712,4.796-10.712,10.712v148.975h159.797
	c15.762,0,28.582,12.825,28.582,28.587v53.525h22.604l62.764,62.763c5.057,5.057,13.704,1.476,13.704-5.676v-57.087h32.851
	c5.915,0,10.711-4.795,10.711-10.712V14.227C491.52,8.312,486.725,3.515,480.809,3.515z"/>
<path style="fill:#2D93BA;" d="M320.304,163.202H160.507v71.4c0,5.916,4.795,10.712,10.712,10.712h177.667v-53.525
	C348.886,176.027,336.065,163.202,320.304,163.202z"/>
<path style="fill:#FCD462;" d="M320.301,181.076H10.711C4.795,181.076,0,185.872,0,191.787v220.375
	c0,5.916,4.795,10.712,10.711,10.712h32.852v57.088c0,7.151,8.646,10.733,13.704,5.676l62.764-62.764h200.27
	c5.916,0,10.711-4.795,10.711-10.712V191.787C331.013,185.872,326.217,181.076,320.301,181.076z"/>
<g>
	<circle style="fill:#DC8744;" cx="62.971" cy="310.579" r="24.509"/>
	<circle style="fill:#DC8744;" cx="165.53" cy="310.579" r="24.509"/>
	<circle style="fill:#DC8744;" cx="268.032" cy="310.579" r="24.509"/>
</g>
<g>
	<circle style="fill:#EBF0F3;" cx="223.478" cy="115.681" r="24.509"/>
	<circle style="fill:#EBF0F3;" cx="325.99" cy="115.681" r="24.509"/>
	<circle style="fill:#EBF0F3;" cx="428.544" cy="115.681" r="24.509"/>
</g>
<g>
</g>
<g>
</g>
<g>
</g>
<g>
</g>
<g>
</g>
<g>
</g>
<g>
</g>
<g>
</g>
<g>
</g>
<g>
</g>
<g>
</g>
<g>
</g>
<g>
</g>
<g>
</g>
<g>
</g>
</svg>
