<?xml version="1.0"?>
<svg xmlns="http://www.w3.org/2000/svg" xmlns:xlink="http://www.w3.org/1999/xlink" version="1.1" id="Capa_1" x="0px" y="0px" viewBox="0 0 504 504" style="enable-background:new 0 0 504 504;" xml:space="preserve" width="512px" height="512px" class=""><g><path style="fill:#F8EBEB" d="M40,373.2h439.2c8.8,0,16.8-7.2,16.8-16.8V234.8l-72.8-100h-88.8l0.8,137.6l-294.4-0.8  c-0.8,0-0.8,0-0.8,0.8V373.2z" data-original="#FFFFFF" class="active-path" data-old_color="#F8E2E2"/><path style="fill:#D3D7DA;" d="M495.2,235.6c0-1.6-0.8-3.2-1.6-4l-70.4-96l0,0h-88.8l0.8,100.8" data-original="#D3D7DA" class=""/><path style="fill:#F16051" d="M333.6,85.2H64L40,270.8c0,0.8,0,0.8,0.8,0.8h293.6V86C334.4,85.2,334.4,85.2,333.6,85.2z" data-original="#FFBF5D" class="" data-old_color="#FFBF5D"/><g>
	<circle style="fill:#D3D7DA" cx="400" cy="373.2" r="46.4" data-original="#F15F50" class="" data-old_color="#F15F50"/>
	<circle style="fill:#D3D7DA" cx="148.8" cy="373.2" r="46.4" data-original="#F15F50" class="" data-old_color="#F15F50"/>
</g><g>
	<path style="fill:#193651" d="M504,232.4l-73.6-101.6l-2.4-4l0,0l0,0h-85.6c0-39.2,2.4-49.6-8.8-49.6H56.8l-5.6,43.2H0v16h49.6   l-3.2,27.2H9.6v16H44l-3.2,27.2h-24v16h21.6L32,268.4l0,0v112h63.2c4,26.4,26.4,46.4,53.6,46.4s49.6-20,53.6-46.4h143.2   c4,26.4,26.4,46.4,53.6,46.4s49.6-20,53.6-46.4h26.4c13.6,0,24.8-11.2,24.8-24.8L504,232.4L504,232.4z M54.4,222.8h39.2v-16H56   l4-27.2h33.6v-16h-32l3.2-27.2h28v-16H67.2l3.2-27.2h255.2c0,0,0,57.6,0,170.4H48.8L54.4,222.8z M148.8,411.6   c-21.6,0-38.4-17.6-38.4-38.4c0-21.6,17.6-38.4,38.4-38.4s38.4,17.6,38.4,38.4C187.2,394.8,170.4,411.6,148.8,411.6z M400,411.6   c-21.6,0-38.4-17.6-38.4-38.4c0-21.6,17.6-38.4,38.4-38.4s38.4,17.6,38.4,38.4C438.4,394.8,420.8,411.6,400,411.6z M488,279.6   h-22.4v16H488v60.8c0,4.8-4,8.8-8.8,8.8h-26.4c-4-26.4-26.4-46.4-53.6-46.4s-49.6,20-53.6,46.4H202.4c-4-26.4-26.4-46.4-53.6-46.4   s-49.6,20-53.6,46.4H48v-24.8h18.4v-16H48v-44.8l295.2,0.8c-0.8-120-0.8-92.8-0.8-137.6h76.8l68,94.4l0,0l0,0l0,0v42.4H488z" data-original="#193651" class=""/>
	<rect x="145.6" y="165.2" style="fill:#193651" width="16" height="16" data-original="#193651" class=""/>
	<rect x="196" y="165.2" style="fill:#193651" width="16" height="16" data-original="#193651" class=""/>
	<rect x="246.4" y="165.2" style="fill:#193651" width="16" height="16" data-original="#193651" class=""/>
</g></g> </svg>
