<?xml version="1.0" encoding="iso-8859-1"?>
<!-- Generator: Adobe Illustrator 19.0.0, SVG Export Plug-In . SVG Version: 6.00 Build 0)  -->
<svg version="1.1" id="Capa_1" xmlns="http://www.w3.org/2000/svg" xmlns:xlink="http://www.w3.org/1999/xlink" x="0px" y="0px"
	 viewBox="0 0 512 512" style="enable-background:new 0 0 512 512;" xml:space="preserve">
<polygon style="fill:#FFFFFF;" points="372,504 372,8 111.2,8 8,110.4 8,504 "/>
<polygon style="fill:#F16051;" points="40,472 40,123.2 124.8,40 340,40 340,472 "/>
<g>
	<rect x="85.6" y="190.4" style="fill:#193651;" width="209.6" height="16"/>
	<rect x="85.6" y="289.6" style="fill:#193651;" width="209.6" height="16"/>
	<rect x="181.6" y="93.6" style="fill:#193651;" width="16" height="16"/>
	<rect x="229.6" y="93.6" style="fill:#193651;" width="16" height="16"/>
	<rect x="276.8" y="93.6" style="fill:#193651;" width="16" height="16"/>
</g>
<path style="fill:#FFFFFF;" d="M392.8,281.6L392.8,281.6c-61.6,0-111.2,49.6-111.2,111.2l0,0c0,61.6,49.6,111.2,111.2,111.2l0,0
	c61.6,0,111.2-49.6,111.2-111.2l0,0C504,331.2,454.4,281.6,392.8,281.6z"/>
<path style="fill:#193651;" d="M392.8,273.6c-4,0-8.8,0-12.8,0.8V0H108L0,107.2V512h380v-0.8c4,0.8,8.8,0.8,12.8,0.8
	c65.6,0,119.2-53.6,119.2-119.2S458.4,273.6,392.8,273.6z M16,496V113.6L114.4,16H364v260.8c-50.4,12.8-88.8,57.6-90.4,112h-188v16
	h188.8c4,39.2,26.4,72.8,59.2,91.2H16z M392.8,496c-56.8,0-103.2-46.4-103.2-103.2S336,289.6,392.8,289.6S496,336,496,392.8
	S449.6,496,392.8,496z"/>
<path style="fill:#D3D7DA;" d="M392.8,472c-44,0-79.2-35.2-79.2-79.2s35.2-79.2,79.2-79.2s79.2,35.2,79.2,79.2S436.8,472,392.8,472z
	"/>
<polygon style="fill:#193651;" points="375.2,416.8 362.4,389.6 338.4,404 364.8,437.6 372.8,448.8 380,438.4 438.4,344.8 "/>
<polygon style="fill:#E1E6E9;" points="124.8,124 40,123.2 124.8,40 "/>
<g>
</g>
<g>
</g>
<g>
</g>
<g>
</g>
<g>
</g>
<g>
</g>
<g>
</g>
<g>
</g>
<g>
</g>
<g>
</g>
<g>
</g>
<g>
</g>
<g>
</g>
<g>
</g>
<g>
</g>
</svg>
