<?xml version="1.0"?>
<svg xmlns="http://www.w3.org/2000/svg" xmlns:xlink="http://www.w3.org/1999/xlink" version="1.1" id="Capa_1" x="0px" y="0px" viewBox="0 0 308.8 308.8" style="enable-background:new 0 0 308.8 308.8;" xml:space="preserve" width="512px" height="512px" class=""><g><rect x="5.2" y="21.6" style="fill:#D3D7DA" width="298.4" height="266" data-original="#E0C899" class="" data-old_color="#d3d7da"/><rect x="5.2" y="21.6" style="fill:#FFFFFF;" width="298.4" height="37.6" data-original="#FFFFFF" class=""/><g>
	<rect x="49.6" y="90.4" style="fill:#F16051" width="69.2" height="49.6" data-original="#FF7A7B" class="active-path" data-old_color="#f16051"/>
	<rect x="198" y="204" style="fill:#F16051" width="69.2" height="49.6" data-original="#FF7A7B" class="active-path" data-old_color="#f16051"/>
</g><g>
	<path style="fill:#193651" d="M5.2,292.4h298.4c2.8,0,5.2-2.4,5.2-5.2V21.6c0-2.8-2.4-5.2-5.2-5.2H5.2c-2.8,0-5.2,2.4-5.2,5.2v266   C0,290.4,2.4,292.4,5.2,292.4z M10.4,64h138.8v218H10.4V64z M159.6,282V64h138.8v218H159.6z M298.4,53.6H159.6V26.4h138.8V53.6z    M149.2,26.8V54H10.4V26.8H149.2z" data-original="#303C49" class="" data-old_color="#303C49"/>
	<path style="fill:#193651" d="M118.8,166.4H49.6c-2.8,0-5.2,2.4-5.2,5.2s2.4,5.2,5.2,5.2h69.2c2.8,0,5.2-2.4,5.2-5.2   S121.6,166.4,118.8,166.4z" data-original="#303C49" class="" data-old_color="#303C49"/>
	<path style="fill:#193651" d="M118.8,206.4H49.6c-2.8,0-5.2,2.4-5.2,5.2c0,2.8,2.4,5.2,5.2,5.2h69.2c2.8,0,5.2-2.4,5.2-5.2   C124,208.8,121.6,206.4,118.8,206.4z" data-original="#303C49" class="" data-old_color="#303C49"/>
	<path style="fill:#193651" d="M118.8,246.4H49.6c-2.8,0-5.2,2.4-5.2,5.2c0,2.8,2.4,5.2,5.2,5.2h69.2c2.8,0,5.2-2.4,5.2-5.2   C124,248.8,121.6,246.4,118.8,246.4z" data-original="#303C49" class="" data-old_color="#303C49"/>
	<path style="fill:#193651" d="M118.8,85.2H49.6c-2.8,0-5.2,2.4-5.2,5.2V140c0,2.8,2.4,5.2,5.2,5.2h69.2c2.8,0,5.2-2.4,5.2-5.2   V90.4C124,87.6,121.6,85.2,118.8,85.2z M113.6,134.8H54.8V95.6h58.8V134.8z" data-original="#303C49" class="" data-old_color="#303C49"/>
	<path style="fill:#193651" d="M266.8,167.2H198c-2.8,0-5.2,2.4-5.2,5.2s2.4,5.2,5.2,5.2h69.2c2.8,0,5.2-2.4,5.2-5.2   S269.6,167.2,266.8,167.2z" data-original="#303C49" class="" data-old_color="#303C49"/>
	<path style="fill:#193651" d="M266.8,127.2H198c-2.8,0-5.2,2.4-5.2,5.2s2.4,5.2,5.2,5.2h69.2c2.8,0,5.2-2.4,5.2-5.2   C272,129.2,269.6,127.2,266.8,127.2z" data-original="#303C49" class="" data-old_color="#303C49"/>
	<path style="fill:#193651" d="M266.8,86.8H198c-2.8,0-5.2,2.4-5.2,5.2s2.4,5.2,5.2,5.2h69.2c2.8,0,5.2-2.4,5.2-5.2   C272,89.2,269.6,86.8,266.8,86.8z" data-original="#303C49" class="" data-old_color="#303C49"/>
	<path style="fill:#193651" d="M266.8,198.8H198c-2.8,0-5.2,2.4-5.2,5.2v49.6c0,2.8,2.4,5.2,5.2,5.2h69.2c2.8,0,5.2-2.4,5.2-5.2   V204C272,200.8,269.6,198.8,266.8,198.8z M261.6,248h-58.4v-39.2H262V248H261.6z" data-original="#303C49" class="" data-old_color="#303C49"/>
</g></g> </svg>
