<?xml version="1.0"?>
<svg xmlns="http://www.w3.org/2000/svg" xmlns:xlink="http://www.w3.org/1999/xlink" version="1.1" id="Capa_1" x="0px" y="0px" viewBox="0 0 384.8 384.8" style="enable-background:new 0 0 384.8 384.8;" xml:space="preserve" width="512px" height="512px" class=""><g><g>
	<path style="fill:#193651" d="M338.4,71.2h-292c-12.8,0-24.4,5.2-32.8,13.6C5.2,93.2,0,104.8,0,117.6v149.6   C0,280,5.2,291.6,13.6,300s20,13.6,32.8,13.6h292c12.8,0,24.4-5.2,32.8-13.6s13.6-20,13.6-32.8V117.6c0-12.8-5.2-24.4-13.6-32.8   C362.8,76.4,351.2,71.2,338.4,71.2z M364.8,267.2c0,7.2-2.8,13.6-7.6,18.4c-4.8,4.8-11.2,7.6-18.4,7.6h-292   c-7.2,0-13.6-2.8-18.4-7.6c-4.8-4.8-7.6-11.2-7.6-18.4V117.6c0-7.2,2.8-13.6,7.6-18.4c4.8-4.8,11.2-7.6,18.4-7.6h292   c7.2,0,13.6,2.8,18.4,7.6s7.6,11.2,7.6,18.4V267.2z" data-original="#983C2A" class="" data-old_color="#983C2A"/>
	<path style="fill:#193651" d="M131.6,178c-6.8,0-13.6,1.6-19.6,4c-2-0.8-4.4-1.6-6.8-2.4c-4-1.2-8.4-1.6-12.8-1.6   c-13.6,0-25.6,5.6-34.8,14.4c-8.8,8.8-14.4,21.2-14.4,34.8c0,13.6,5.6,25.6,14.4,34.8c8.8,8.8,21.2,14.4,34.8,14.4   c4.4,0,8.8-0.4,12.8-1.6c2.4-0.8,4.4-1.6,6.8-2.4c6,2.8,12.8,4,19.6,4c13.6,0,25.6-5.6,34.8-14.4c8.8-8.8,14.4-21.2,14.4-34.8   c0-13.6-5.6-25.6-14.4-34.8C157.6,183.2,145.2,178,131.6,178z M72,247.2c-5.2-5.2-8.4-12.4-8.4-20.4s3.2-15.2,8.4-20.4   c5.2-5.2,12.4-8.4,20-8.4c0,0,0,0.4-0.4,0.4c-0.8,1.2-1.6,2.4-2.4,3.6l-0.4,0.4v0.4c-2,3.6-3.6,7.2-4.4,11.2c0,0.4-0.4,0.8-0.4,1.2   c-0.4,1.6-0.8,2.8-0.8,4.4c0,0.4,0,0.8-0.4,1.6c-0.4,2-0.4,4-0.4,6s0,4,0.4,6c0,0.4,0,0.8,0.4,1.6c0.4,1.6,0.4,3.2,0.8,4.8   c0,0.4,0,0.8,0.4,1.2c1.2,4,2.8,7.6,4.8,11.2l0,0l0,0l0,0l0.4,0.4c0.8,1.2,1.6,2.4,2.4,3.6c0,0,0,0.4,0.4,0.4   C84.4,255.6,77.2,252.4,72,247.2z M152,247.2c-5.2,5.2-12.4,8.4-20.4,8.4c-5.6,0-10.8-1.6-15.6-4.4c-0.4-0.4-0.8-0.8-1.6-0.8   c-0.4-0.4-0.8-0.8-1.2-0.8c-0.4-0.4-1.2-0.8-1.6-1.2c-0.4-0.4-0.4-0.4-0.8-0.8c-0.4-0.4-0.4-0.4-0.8-0.8c-0.4-0.4-0.8-0.8-1.2-1.6   c-0.4-0.4-0.8-0.8-0.8-1.2c-0.4-0.4-0.8-0.8-0.8-1.6c-1.2-2-2-4-2.8-6c0-0.4-0.4-0.8-0.4-1.2c0-0.4-0.4-1.2-0.4-1.6   c0-0.8-0.4-1.2-0.4-2c0-0.4,0-0.8,0-1.2c0-1.2-0.4-2.4-0.4-3.6s0-2.4,0.4-3.2c0-0.4,0-0.8,0.4-1.2c0-0.8,0.4-1.2,0.4-2   c0-0.4,0.4-1.2,0.4-1.6s0.4-0.8,0.4-1.2c0.8-2,1.6-4.4,2.8-6c0.4-0.4,0.4-0.8,0.8-1.2c0.4-0.4,0.8-0.8,1.2-1.2   c0.4-0.4,0.8-0.8,1.2-1.6c0.4-0.4,0.4-0.8,0.8-0.8c0.4-0.4,0.4-0.4,0.8-0.8c0.4-0.4,0.8-0.8,1.6-1.2c0.4-0.4,0.8-0.8,1.2-1.2   c0.4-0.4,0.8-0.8,1.2-0.8c4.4-2.8,9.6-4.4,15.6-4.4c8,0,15.2,3.2,20.4,8.4c5.2,5.2,8.4,12.4,8.4,20.4S157.2,242,152,247.2z" data-original="#983C2A" class="" data-old_color="#983C2A"/>
	<path style="fill:#193651" d="M315.6,120.4H69.2c-5.6,0-10,4.4-10,10s4.4,10,10,10h246c5.6,0,10-4.4,10-10   S320.8,120.4,315.6,120.4z" data-original="#983C2A" class="" data-old_color="#983C2A"/>
	<path style="fill:#193651" d="M315.6,162.4h-102c-5.6,0-10,4.4-10,10s4.4,10,10,10h101.6c5.6,0,10-4.4,10-10   C325.2,166.8,320.8,162.4,315.6,162.4z" data-original="#983C2A" class="" data-old_color="#983C2A"/>
	<path style="fill:#193651" d="M315.6,204.4h-102c-5.6,0-10,4.4-10,10s4.4,10,10,10h101.6c5.6,0,10-4.4,10-10   C325.2,208.8,320.8,204.4,315.6,204.4z" data-original="#983C2A" class="" data-old_color="#983C2A"/>
	<path style="fill:#193651" d="M315.6,246.4h-102c-5.6,0-10,4.4-10,10s4.4,10,10,10h101.6c5.6,0,10-4.4,10-10   S320.8,246.4,315.6,246.4z" data-original="#983C2A" class="" data-old_color="#983C2A"/>
</g><g>
	<path style="fill:#D3D7DA" d="M315.6,140.4H69.2c-5.6,0-10-4.4-10-10s4.4-10,10-10h246c5.6,0,10,4.4,10,10   S320.8,140.4,315.6,140.4z M213.6,182.4c-5.6,0-10-4.4-10-10s4.4-10,10-10h101.6c5.6,0,10,4.4,10,10s-4.4,10-10,10H213.6z    M203.6,214.4c0-5.6,4.4-10,10-10h101.6c5.6,0,10,4.4,10,10s-4.4,10-9.6,10h-102C208,224.4,203.6,220,203.6,214.4z M203.6,256.4   c0-5.6,4.4-10,10-10h101.6c5.6,0,10,4.4,10,10s-4.4,10-10,10H213.6C208,266.4,203.6,262,203.6,256.4z M131.6,178   c13.6,0,25.6,5.6,34.8,14.4c8.8,8.8,14.4,21.2,14.4,34.8s-5.6,25.6-14.4,34.8c-8.8,8.8-21.2,14.4-34.8,14.4c-6.8,0-13.6-1.6-19.6-4   c-2,0.8-4.4,1.6-6.8,2.4c-4,1.2-8.4,1.6-12.8,1.6c-13.6,0-25.6-5.6-34.8-14.4c-8.8-8.8-14.4-21.2-14.4-34.8   c0-13.6,5.6-25.6,14.4-34.8c8.8-8.8,21.2-14.4,34.8-14.4c4.4,0,8.8,0.4,12.8,1.6c2.4,0.8,4.4,1.6,6.8,2.4   C118,179.2,124.8,178,131.6,178z M20,117.6v149.6c0,7.2,2.8,13.6,7.6,18.4c4.8,4.8,11.2,7.6,18.4,7.6h292c7.2,0,13.6-2.8,18.4-7.6   c4.8-4.8,7.6-11.2,7.6-18.4V117.6c0-7.2-2.8-13.6-7.6-18.4c-4.8-4.8-11.2-7.6-18.4-7.6H46c-7.2,0-13.6,2.8-18.4,7.6   C23.2,104,20,110.4,20,117.6z" data-original="#59C4C6" class="active-path" data-old_color="#d3d7da"/>
	<g>
		<path style="fill:#F16051" d="M111.2,206.4c-5.2,5.2-8.4,12.4-8.4,20.4s3.2,15.2,8.4,20.4c5.2,5.2,12.4,8.4,20.4,8.4    s15.2-3.2,20.4-8.4c5.2-5.2,8.4-12.4,8.4-20.4s-3.2-15.2-8.4-20.4c-5.2-5.2-12.4-8.4-20.4-8.4S116.4,201.2,111.2,206.4z" data-original="#FFE749" class="" data-old_color="#f16051"/>
		<path style="fill:#F16051" d="M82.8,226.8c0-10.8,3.6-20.8,9.6-28.8c-8,0-14.8,3.2-20,8.4c-5.2,5.2-8.4,12.4-8.4,20.4    s3.2,15.2,8.4,20.4c5.2,5.2,12,8.4,20,8.4C86,247.6,82.8,237.6,82.8,226.8z" data-original="#FFE749" class="" data-old_color="#f16051"/>
	</g>
</g></g> </svg>
