<?xml version="1.0" encoding="iso-8859-1"?>
<!-- Generator: Adobe Illustrator 19.0.0, SVG Export Plug-In . SVG Version: 6.00 Build 0)  -->
<svg version="1.1" id="Capa_1" xmlns="http://www.w3.org/2000/svg" xmlns:xlink="http://www.w3.org/1999/xlink" x="0px" y="0px"
	 viewBox="0 0 512 512" style="enable-background:new 0 0 512 512;" xml:space="preserve">
<rect x="8" y="8" style="fill:#FFFFFF;" width="496" height="435.2"/>
<rect x="40" y="40" style="fill:#F16051;" width="432" height="324.8"/>
<polygon style="fill:#FFFFFF;" points="322.4,504 189.6,504 203.2,443.2 308.8,443.2 "/>
<circle style="fill:#193651;" cx="256" cy="402.4" r="16"/>
<g>
	<rect x="238.4" y="119.2" style="fill:#FFFFFF;" width="197.6" height="63.2"/>
	<rect x="238.4" y="222.4" style="fill:#FFFFFF;" width="197.6" height="63.2"/>
	<rect x="75.2" y="192" style="fill:#FFFFFF;" width="115.2" height="93.6"/>
</g>
<g>
	<path style="fill:#193651;" d="M512,451.2V0H0v451.2h192.8l-9.6,44.8H168v16h176v-16h-15.2l-9.6-44.8H512z M16,435.2V16h480v419.2
		H16z M312,496H200l9.6-44.8h93.6L312,496z"/>
	<path style="fill:#193651;" d="M444.8,111.2H230.4v79.2H444v-79.2H444.8z M428.8,174.4H246.4v-47.2H428v47.2H428.8z"/>
	<path style="fill:#193651;" d="M444.8,214.4H230.4v79.2H444v-79.2L444.8,214.4L444.8,214.4z M428.8,277.6H246.4v-47.2H428v47.2
		H428.8z"/>
	<path style="fill:#193651;" d="M188.8,166.4c0-30.4-24.8-55.2-55.2-55.2S78.4,136,78.4,166.4V184H67.2v109.6h131.2V184H188v-17.6
		H188.8z M93.6,166.4c0-21.6,17.6-39.2,39.2-39.2s39.2,17.6,39.2,39.2V184H92.8v-17.6H93.6z M183.2,277.6h-100V200h99.2v77.6H183.2z
		"/>
	<rect x="182.4" y="394.4" style="fill:#193651;" width="16" height="16"/>
	<rect x="313.6" y="394.4" style="fill:#193651;" width="16" height="16"/>
	<rect x="274.4" y="143.2" style="fill:#193651;" width="16" height="16"/>
	<rect x="316.8" y="143.2" style="fill:#193651;" width="16" height="16"/>
	<rect x="360" y="143.2" style="fill:#193651;" width="16" height="16"/>
	<rect x="274.4" y="245.6" style="fill:#193651;" width="16" height="16"/>
	<rect x="316.8" y="245.6" style="fill:#193651;" width="16" height="16"/>
	<rect x="360" y="245.6" style="fill:#193651;" width="16" height="16"/>
</g>
<g>
</g>
<g>
</g>
<g>
</g>
<g>
</g>
<g>
</g>
<g>
</g>
<g>
</g>
<g>
</g>
<g>
</g>
<g>
</g>
<g>
</g>
<g>
</g>
<g>
</g>
<g>
</g>
<g>
</g>
</svg>
